<svg width="16" height="16" viewBox="0 0 16 16" fill="none" xmlns="http://www.w3.org/2000/svg">
<g id="facebook 1" clip-path="url(#clip0_2682_15156)">
<path id="Vector" d="M14 0H2C0.896667 0 0 0.896667 0 2V14C0 15.1027 0.896667 16 2 16H14C15.1027 16 16 15.1027 16 14V2C16 0.896667 15.1027 0 14 0Z" fill="#3B5999"/>
<path id="Vector_2" d="M11 8V6C11 5.448 11.448 5.5 12 5.5H13V3H11C9.34267 3 8 4.34267 8 6V8H6V10.5H8V16H11V10.5H12.5L13.5 8H11Z" fill="white"/>
</g>
<defs>
<clipPath id="clip0_2682_15156">
<rect width="16" height="16" fill="white"/>
</clipPath>
</defs>
</svg>
