<svg width="41" height="40" viewBox="0 0 41 40" fill="none" xmlns="http://www.w3.org/2000/svg">
<g id="instagram (1) 1" clip-path="url(#clip0_5598_8508)">
<g id="Group">
<g id="Group_2">
<path id="Vector" d="M32.1273 7.40137C31.592 7.40137 31.1562 7.83707 31.1562 8.37246C31.1562 8.90785 31.592 9.34355 32.1273 9.34355C32.6628 9.34355 33.0984 8.90793 33.0984 8.37246C33.0984 7.83699 32.6628 7.40137 32.1273 7.40137Z" fill="#fff"/>
</g>
</g>
<g id="Group_3">
<g id="Group_4">
<path id="Vector_2" d="M20.4997 11.3909C15.7527 11.3909 11.8906 15.2529 11.8906 19.9999C11.8906 24.747 15.7527 28.6091 20.4997 28.6091C25.2468 28.6091 29.1088 24.747 29.1088 20C29.1088 15.253 25.2468 11.3909 20.4997 11.3909Z" fill="#fff"/>
</g>
</g>
<g id="Group_5">
<g id="Group_6">
<path id="Vector_3" d="M29.5346 0H11.4654C5.41906 0 0.5 4.91906 0.5 10.9655V29.0346C0.5 35.081 5.41906 40 11.4654 40H29.5346C35.581 40 40.5 35.0809 40.5 29.0346V10.9655C40.5 4.91906 35.581 0 29.5346 0ZM20.5 30.9713C14.4504 30.9713 9.52883 26.0496 9.52883 20C9.52883 13.9504 14.4505 9.02891 20.5 9.02891C26.5495 9.02891 31.4713 13.9505 31.4713 20C31.4713 26.0495 26.5495 30.9713 20.5 30.9713ZM32.1274 11.7059C30.2895 11.7059 28.7941 10.2106 28.7941 8.37266C28.7941 6.53469 30.2895 5.0393 32.1274 5.0393C33.9654 5.0393 35.4607 6.53461 35.4607 8.37258C35.4607 10.2105 33.9654 11.7059 32.1274 11.7059Z" fill="#fff"/>
</g>
</g>
</g>
<defs>
<clipPath id="clip0_5598_8508">
<rect width="40" height="40" fill="white" transform="translate(0.5)"/>
</clipPath>
</defs>
</svg>
