<svg width="16" height="16" viewBox="0 0 16 16" fill="none" xmlns="http://www.w3.org/2000/svg">
<g id="instagram 1" clip-path="url(#clip0_2682_15161)">
<path id="Vector" d="M1.00001 1.08862C-0.257328 2.39462 5.68479e-06 3.78195 5.68479e-06 7.99662C5.68479e-06 11.4966 -0.610661 15.0053 2.58534 15.8313C3.58334 16.0879 12.426 16.0879 13.4227 15.83C14.7533 15.4866 15.836 14.4073 15.984 12.5253C16.0047 12.2626 16.0047 3.73528 15.9833 3.46728C15.826 1.46262 14.592 0.307283 12.966 0.0732829C12.5933 0.0192829 12.5187 0.00328288 10.6067 -5.04497e-05C3.82467 0.00328288 2.33801 -0.298717 1.00001 1.08862Z" fill="url(#paint0_linear_2682_15161)"/>
<path id="Vector_2" d="M7.99867 2.09262C5.578 2.09262 3.27934 1.87728 2.40134 4.13062C2.03867 5.06128 2.09134 6.26995 2.09134 8.00062C2.09134 9.51928 2.04267 10.9466 2.40134 11.8699C3.27734 14.1246 5.59467 13.9086 7.99734 13.9086C10.3153 13.9086 12.7053 14.15 13.594 11.8699C13.9573 10.9299 13.904 9.73928 13.904 8.00062C13.904 5.69262 14.0313 4.20262 12.912 3.08395C11.7787 1.95062 10.246 2.09262 7.996 2.09262H7.99867ZM7.46934 3.15728C12.5187 3.14928 13.1613 2.58795 12.8067 10.386C12.6807 13.1439 10.5807 12.8413 7.99934 12.8413C3.29267 12.8413 3.15734 12.7066 3.15734 7.99795C3.15734 3.23462 3.53067 3.15995 7.46934 3.15595V3.15728ZM11.152 4.13795C10.7607 4.13795 10.4433 4.45528 10.4433 4.84662C10.4433 5.23795 10.7607 5.55528 11.152 5.55528C11.5433 5.55528 11.8607 5.23795 11.8607 4.84662C11.8607 4.45528 11.5433 4.13795 11.152 4.13795ZM7.99867 4.96662C6.32334 4.96662 4.96534 6.32528 4.96534 8.00062C4.96534 9.67595 6.32334 11.0339 7.99867 11.0339C9.674 11.0339 11.0313 9.67595 11.0313 8.00062C11.0313 6.32528 9.674 4.96662 7.99867 4.96662ZM7.99867 6.03128C10.602 6.03128 10.6053 9.96995 7.99867 9.96995C5.396 9.96995 5.392 6.03128 7.99867 6.03128Z" fill="white"/>
</g>
<defs>
<linearGradient id="paint0_linear_2682_15161" x1="1.03069" y1="14.978" x2="15.901" y2="2.10793" gradientUnits="userSpaceOnUse">
<stop stop-color="#FFDD55"/>
<stop offset="0.5" stop-color="#FF543E"/>
<stop offset="1" stop-color="#C837AB"/>
</linearGradient>
<clipPath id="clip0_2682_15161">
<rect width="16" height="16" fill="white"/>
</clipPath>
</defs>
</svg>
