<svg width="16" height="16" viewBox="0 0 16 16" fill="none" xmlns="http://www.w3.org/2000/svg">
<g id="telegram (3) 1" clip-path="url(#clip0_2682_15149)">
<g id="Layer 2">
<g id="telegram">
<path id="background" d="M13.8182 0H2.18182C0.976833 0 0 0.976833 0 2.18182V13.8182C0 15.0232 0.976833 16 2.18182 16H13.8182C15.0232 16 16 15.0232 16 13.8182V2.18182C16 0.976833 15.0232 0 13.8182 0Z" fill="#1C8ADB"/>
<path id="icon" d="M12.3582 4.13641L12.1927 4.19641L3.21273 7.43186C3.14909 7.45154 3.09378 7.49178 3.05547 7.54627C3.01716 7.60076 2.99801 7.66642 3.00103 7.73296C3.00404 7.7995 3.02905 7.86316 3.07213 7.91396C3.11522 7.96477 3.17394 7.99984 3.23909 8.01368L5.56364 8.65004L5.99728 9.92277L6.43091 11.1955C6.45582 11.2579 6.49559 11.3133 6.54675 11.3568C6.59792 11.4003 6.65893 11.4307 6.72451 11.4453C6.79008 11.4599 6.85823 11.4583 6.92303 11.4406C6.98784 11.4229 7.04734 11.3896 7.09637 11.3437L8.29728 10.2091L10.6555 11.8082C10.9436 12.0046 11.3545 11.8591 11.4282 11.5355L12.99 4.63459C13.0664 4.29277 12.7064 4.01186 12.3582 4.13641ZM11.2118 5.66822L7.15455 8.98459L6.96364 9.14095C6.9217 9.1742 6.89432 9.22244 6.88728 9.2755L6.84455 9.62822L6.72728 10.6191C6.72824 10.6312 6.72438 10.6431 6.71653 10.6523C6.70869 10.6615 6.69751 10.6673 6.68546 10.6682C6.6734 10.6692 6.66146 10.6653 6.65225 10.6575C6.64304 10.6496 6.63733 10.6385 6.63637 10.6264L6.30637 9.63641L5.96546 8.62277C5.95104 8.57721 5.95295 8.52804 5.97087 8.48374C5.9888 8.43944 6.0216 8.40277 6.06364 8.38004L10.2855 5.96004L11.08 5.5055C11.1955 5.43822 11.3136 5.58459 11.2118 5.66822Z" fill="white"/>
</g>
</g>
</g>
<defs>
<clipPath id="clip0_2682_15149">
<rect width="16" height="16" fill="white"/>
</clipPath>
</defs>
</svg>
